<?xml version="1.0" standalone="no"?>
<!DOCTYPE svg PUBLIC "-//W3C//DTD SVG 1.1//EN" "http://www.w3.org/Graphics/SVG/1.1/DTD/svg11.dtd" >
<svg xmlns="http://www.w3.org/2000/svg">
<metadata>Generated by IcoMoon</metadata>
<defs>
<font id="lovemondays" horiz-adv-x="1024">
<font-face units-per-em="1024" ascent="960" descent="-64" />
<missing-glyph horiz-adv-x="1024" />
<glyph unicode="&#x20;" horiz-adv-x="512" d="" />
<glyph unicode="&#xe900;" glyph-name="search" horiz-adv-x="860" d="M578.494 286.816c159.011 107.254 200.968 323.105 93.714 482.115s-323.105 200.968-482.115 93.714c-159.011-107.254-200.968-323.105-93.714-482.115s323.105-200.968 482.115-93.714v0zM532.685 354.731c-121.503-81.954-286.437-49.894-368.391 71.608s-49.894 286.437 71.608 368.391c121.503 81.954 286.437 49.894 368.391-71.608s49.894-286.437-71.608-368.391v0zM536.571 307.946l237.588-352.239 67.915 45.809-260.493 386.196-67.915-45.809z" />
<glyph unicode="&#xe901;" glyph-name="menu" horiz-adv-x="1536" d="M0 960h1536v-128h-1536v128zM0 512h1536v-128h-1536v128zM0 64h1536v-128h-1536v128z" />
<glyph unicode="&#xe902;" glyph-name="clock" d="M512-64c282.77 0 512 229.23 512 512s-229.23 512-512 512c-282.77 0-512-229.23-512-512s229.23-512 512-512v0zM512 82.286c-201.978 0-365.714 163.736-365.714 365.714s163.736 365.714 365.714 365.714c201.978 0 365.714-163.736 365.714-365.714s-163.736-365.714-365.714-365.714v0zM438.857 740.571h146.286v-329.143h-146.286v329.143zM713.143 521.143v-146.286h-274.286v146.286h274.286z" />
<glyph unicode="&#xe903;" horiz-adv-x="709" d="M82.823 526.306h496.941c45.553 0 82.824-37.948 82.824-84.329v-421.647c0-46.381-37.271-84.329-82.824-84.329h-496.941c-45.553 0-82.824 37.948-82.824 84.329v421.647c0 46.381 37.271 84.329 82.824 84.329v0 0z" />
<glyph unicode="&#xe904;" horiz-adv-x="709" d="M248.471 231.153c0-46.574 37.081-84.329 82.824-84.329s82.824 37.756 82.824 84.329c0 46.574-37.081 84.329-82.824 84.329s-82.824-37.756-82.824-84.329z" />
<glyph unicode="&#xe905;" glyph-name="twitter" horiz-adv-x="1280" d="M1131.722 671.439c0-341.585-259.997-735.439-735.439-735.439-145.939 0-281.831 42.78-396.283 116.127 20.126-2.233 40.81-3.644 61.659-3.644 121.118 0 232.55 41.368 321.065 110.743-113.238 2.003-208.615 76.827-241.546 179.493 15.792-3.021 32.011-4.695 48.526-4.695 23.639 0 46.49 3.217 68.127 9.094-118.261 23.869-207.4 128.209-207.4 253.562v3.218c34.868-19.305 74.759-30.928 117.112-32.241-69.341 46.359-114.912 125.55-114.912 215.181 0 47.344 12.739 91.7 34.999 129.884 127.389-156.379 317.913-259.242 532.766-270.011-4.465 18.846-6.632 38.676-6.632 58.934 0 142.623 115.7 258.356 258.388 258.356 74.398 0 141.605-31.387 188.752-81.522 58.802 11.524 114.19 33.029 164.128 62.676-19.338-60.313-60.345-110.973-113.632-142.951 52.236 6.172 101.976 20.060 148.401 40.712-34.572-52.105-78.337-97.61-128.899-134.053 0.591-11.064 0.821-22.227 0.821-33.423z" />
<glyph unicode="&#xe906;" glyph-name="report" horiz-adv-x="788" d="M0 329.846h157.538v-393.846h-157.538v393.846zM0 960h744.727l-286.747-236.308 286.747-236.308h-744.727v472.615z" />
<glyph unicode="&#xe907;" glyph-name="reorder" horiz-adv-x="1182" d="M278.009 960l278.009-417.014h-556.018zM208.507 542.986h139.005v-486.516h-139.005v486.516zM903.529-13.032l-278.009 417.014h556.018zM973.032 403.982h-139.005v486.516h139.005v-486.516z" />
<glyph unicode="&#xe908;" d="M170.667 960h680.428c94.257 0 170.667-76.41 170.667-170.667v-682.667c0-94.257-76.41-170.667-170.667-170.667h-680.428c-94.257 0-170.667 76.41-170.667 170.667v682.667c0 94.257 76.41 170.667 170.667 170.667z" />
<glyph unicode="&#xe909;" d="M510.881 245.655l223.555-137.093-59.137 258.6 197.339 173.882-260.155 22.708-101.602 243.798-101.62-243.798-260.138-22.708 197.34-173.882-59.154-258.6 223.571 137.093z" />
<glyph unicode="&#xe90a;" glyph-name="profile" d="M499.588 417.882c-139.636 0-251.345 120.471-251.345 271.059s111.709 271.059 251.345 271.059c139.636 0 251.345-120.471 251.345-271.059s-111.709-271.059-251.345-271.059v0zM832.804-64h-651.636c-102.4 0-161.358 66.259-176.873 132.518s9.309 153.6 102.4 195.765c105.503 48.188 226.521 93.365 384.776 93.365 183.079 0 341.333-57.224 415.806-93.365 93.091-42.165 117.915-126.494 102.4-195.765-15.515-66.259-74.473-132.518-176.873-132.518v0z" />
<glyph unicode="&#xe90b;" glyph-name="linkedin" d="M859.152 87.417h-149.444v237.646c0 56.697-1.022 129.586-77.705 129.586-77.824 0-89.741-61.739-89.741-125.483v-241.749h-149.438v488.683h143.458v-66.773h1.989c19.955 38.421 68.736 78.933 141.491 78.933 151.433 0 179.391-101.212 179.391-232.789v-268.053zM224.293 642.901c-47.934 0-86.73 39.474-86.73 88.085 0 48.576 38.797 88.036 86.73 88.036 47.808 0 86.66-39.46 86.66-88.036 0-48.612-38.852-88.085-86.66-88.085v0zM149.487 87.417v488.683h149.549v-488.683h-149.549zM933.629 960h-859.208c-41.058 0-74.421-33.052-74.421-73.806v-876.302c0-40.789 33.363-73.892 74.421-73.892h859.208c41.128 0 74.631 33.102 74.631 73.892v876.302c0 40.754-33.503 73.806-74.631 73.806v0z" />
<glyph unicode="&#xe90c;" glyph-name="like" horiz-adv-x="1195" d="M255.070 558.373h-204.061c-28.16 0-51.009-22.849-51.009-51.009v-510.141c0-28.16 22.849-51.009 51.009-51.009h204.061c28.16 0 51.009 22.849 51.009 51.009v510.141c0.012 28.16-22.849 51.009-51.009 51.009v0zM1122.312 609.395h-391.413v289.395c0 28.16-22.849 51.009-51.009 51.009h-67.719c-20.404 0-38.868-12.141-46.884-30.914l-157.177-411.52v-483.512l185.078-74.019c6.077-2.396 12.499-3.619 18.983-3.619h408.11c24.64 0 45.76 17.649 50.194 41.882l102.031 561.162c2.705 14.883-1.322 30.186-11.017 41.82-9.695 11.585-24.084 18.316-39.177 18.316z" />
<glyph unicode="&#xe90d;" glyph-name="gplus" horiz-adv-x="1536" d="M485.468 539.639v-168.144h275.33c-11.096-72.162-83.223-211.582-275.33-211.582-165.753 0-300.99 138.719-300.99 309.666s135.237 309.666 300.99 309.666c94.319 0 157.43-40.635 193.494-75.665l131.77 128.21c-84.61 79.869-194.187 128.21-325.263 128.21-268.394 0-485.468-219.288-485.468-490.421s217.073-490.421 485.468-490.421c280.184 0 466.049 198.971 466.049 479.212 0 32.228-3.468 56.749-7.629 81.27h-458.42zM1525.756 539.639h-138.705v140.12h-138.705v-140.12h-138.705v-140.12h138.705v-140.12h138.705v140.12h138.705z" />
<glyph unicode="&#xe90e;" glyph-name="follow" horiz-adv-x="1126" d="M0 672.205v1.69c0 157.884 139.674 286.106 312.013 286.106 103.066 0 194.304-45.807 251.187-116.582 56.883 70.776 148.122 116.582 251.187 116.582 172.339 0 312.013-128.222 312.013-286.106v-2.816c0-388.796-563.2-648.806-563.2-648.806s-563.2 260.011-563.2 648.806v1.126z" />
<glyph unicode="&#xe90f;" glyph-name="close" d="M860.874 935.574l131.65-131.65-789.903-789.903-131.65 131.65 789.903 789.903zM992.524 145.672l-131.65-131.65-789.903 789.903 131.65 131.65 789.903-789.903z" />
<glyph unicode="&#xe910;" glyph-name="arrow_up" horiz-adv-x="1707" d="M1617.147 155.47l-160.906-160.906-804.53 804.53 160.906 160.906 804.53-804.53zM168.992-5.436l-160.906 160.906 804.53 804.53 160.906-160.906-804.53-804.53z" />
<glyph unicode="&#xe911;" glyph-name="arrow_right" horiz-adv-x="683" d="M141.385-5.436l-96.544 96.544 482.718 482.718 96.544-96.544-482.718-482.718zM44.841 863.456l96.544 96.544 482.718-482.718-96.544-96.544-482.718 482.718z" />
<glyph unicode="&#xe912;" glyph-name="arrow_left" horiz-adv-x="614" d="M482.718 960l96.544-96.544-482.718-482.718-96.544 96.544 482.718 482.718zM579.262 91.107l-96.544-96.544-482.718 482.718 96.544 96.544 482.718-482.718z" />
<glyph unicode="&#xe913;" glyph-name="arrow_down" horiz-adv-x="1536" d="M0 747.923l144.815 144.815 724.077-724.077-144.815-144.815-724.077 724.077zM1303.339 892.738l144.815-144.815-724.077-724.077-144.815 144.815 724.077 724.077z" />
<glyph unicode="&#xe914;" glyph-name="add" d="M409.6 960h204.8v-1024h-204.8v1024zM1024 550.4v-204.8h-1024v204.8h1024z" />
<glyph unicode="&#xe915;" horiz-adv-x="8217" d="M0 34.329v796.555h170.832v-647.573h336.697v-148.983h-507.531zM444.958 431.611c0 240.357 175.799 412.183 417.147 412.183 240.357 0 416.155-171.824 416.155-412.183s-175.799-412.183-416.155-412.183c-242.343 0-417.147 171.824-417.147 412.183zM1102.464 431.611c0 148.983-94.354 261.214-241.351 261.214-147.989 0-242.343-112.233-242.343-261.214 0-147.989 94.354-261.214 242.343-261.214 146.994 0 241.351 113.225 241.351 261.214zM2285.376 34.329v796.555h564.144v-148.983h-394.304v-166.859h386.359v-148.983h-386.359v-181.758h394.304v-148.983h-564.144zM3795.056 34.329v574.075l-224.466-575.070h-74.491l-224.466 575.070v-575.070h-169.84v797.547h237.376l193.675-498.592 193.675 498.592h239.365v-796.555h-170.832zM4001.646 431.611c0 240.357 175.799 412.183 417.147 412.183 240.357 0 416.155-171.824 416.155-412.183s-175.799-412.183-416.155-412.183c-241.351 0-417.147 171.824-417.147 412.183zM4660.144 431.611c0 148.983-94.354 261.214-241.351 261.214-147.989 0-242.343-112.233-242.343-261.214 0-147.989 94.354-261.214 242.343-261.214 146.994 0 241.351 113.225 241.351 261.214zM5419.95 34.329l-380.4 519.449v-519.449h-169.84v796.555h174.805l369.474-500.578v500.578h169.84v-796.555h-163.881zM5633.49 34.329v796.555h313.856c249.296 0 423.109-158.914 423.109-398.277 0-241.351-172.818-399.271-422.114-399.271h-314.848zM6197.632 432.606c0 140.043-86.409 248.304-248.304 248.304h-146.002v-498.592h145.008c156.928 0.992 249.296 114.219 249.296 250.288zM6929.63 34.329l-50.654 135.077h-341.664l-50.654-135.077h-192.683l308.889 796.555h212.546l306.903-796.555h-192.683zM6709.136 661.045l-124.151-342.658h248.304l-124.151 342.658zM7182.898 34.329v325.774l-305.909 470.782h193.675l197.648-318.821 196.656 318.821h192.683l-304.917-470.782v-325.774h-169.84zM7557.339 146.56l93.362 133.090c56.613-58.599 143.022-109.253 253.269-109.253 94.354 0 139.049 41.714 139.049 88.395 0 139.049-458.864 41.714-458.864 341.664 0 133.090 114.219 242.343 301.936 242.343 127.131 0 231.417-37.742 310.875-111.239l-94.354-127.131c-64.56 59.593-150.967 87.403-231.417 87.403-71.511 0-112.233-30.791-112.233-78.464 0-125.145 457.87-40.722 457.87-337.691 0-146.002-105.28-255.255-318.821-255.255-155.934-0.992-265.186 50.654-340.672 126.137z" />
<glyph unicode="&#xe916;" horiz-adv-x="8217" d="M1651.71 36.313c-12.912 35.755-10.926 75.483 5.959 110.247l234.398 503.559c23.838 48.667 84.423 70.519 134.082 48.667 50.654-23.838 63.566-75.483 41.714-122.165l-127.131-265.186c-17.879-35.755-71.511-8.939-55.621 25.824l126.137 257.241c5.959 14.898-0.992 32.777-13.904 39.728-14.898 6.953-33.769 0-39.728-13.904l-235.392-503.559c-17.879-38.736-0.992-81.442 35.755-98.329 36.75-19.863 83.431 0.992 97.335 35.755l304.917 653.531c29.797 62.571 2.981 137.063-60.585 165.865-61.579 28.802-137.063 1.986-165.865-60.585l-236.384-500.578c-19.863-41.714-81.442-13.904-61.579 27.81l234.398 502.565c45.689 97.335 161.893 140.043 259.227 94.354 98.327-44.695 141.035-161.893 94.354-260.222l-303.922-651.545c-16.885-34.761-45.689-62.571-81.442-75.483-75.483-27.81-160.901 14.898-186.725 86.409zM1633.831-51.088c-35.755 12.912-64.56 40.722-81.442 75.483l-303.922 651.545c-45.689 99.321-3.973 215.527 94.354 260.222 97.335 45.689 213.541 2.981 259.227-94.354l235.392-501.57c19.865-41.714-41.714-69.525-61.579-27.81l-236.384 500.578c-28.802 61.579-104.288 89.39-165.865 60.585-63.566-28.802-90.382-103.294-60.585-165.865l304.917-653.531c13.904-34.761 60.585-55.621 97.335-35.755 36.75 16.885 53.632 59.593 35.755 98.327l-235.392 503.559c-5.959 14.898-23.838 20.857-39.728 13.904-13.904-5.959-19.863-24.83-13.904-39.728l126.137-257.241c16.885-34.761-37.742-61.579-55.621-25.824l-127.131 265.186c-21.851 46.681-8.939 99.321 41.714 122.165 49.662 21.851 110.247 0 134.082-48.667l234.398-503.559c16.885-34.761 18.871-74.491 5.959-110.247-27.81-71.511-112.233-114.219-187.717-87.403z" />
<glyph unicode="&#xe917;" glyph-name="lovemondays-logotype-plain" horiz-adv-x="8216" d="M0 34.328v796.555h170.832v-647.573h336.698v-148.982h-507.531zM444.958 431.612c0 240.357 175.798 412.182 417.148 412.182 240.357 0 416.155-171.825 416.155-412.182s-175.798-412.182-416.155-412.182c-242.343 0-417.148 171.825-417.148 412.182zM1102.464 431.612c0 148.982-94.355 261.214-241.35 261.214-147.988 0-242.343-112.233-242.343-261.214 0-147.988 94.355-261.214 242.343-261.214 146.995 0 241.35 113.226 241.35 261.214zM2285.377 34.328v796.555h564.144v-148.982h-394.305v-166.859h386.359v-148.982h-386.359v-181.758h394.305v-148.982h-564.144zM3795.057 34.328v574.076l-224.466-575.069h-74.491l-224.466 575.069v-575.069h-169.839v797.548h237.377l193.676-498.592 193.676 498.592h239.364v-796.555h-170.832zM4001.645 431.612c0 240.357 175.798 412.182 417.148 412.182 240.357 0 416.155-171.825 416.155-412.182s-175.798-412.182-416.155-412.182c-241.35 0-417.148 171.825-417.148 412.182zM4660.144 431.612c0 148.982-94.355 261.214-241.35 261.214-147.988 0-242.343-112.233-242.343-261.214 0-147.988 94.355-261.214 242.343-261.214 146.995 0 241.35 113.226 241.35 261.214zM5419.95 34.328l-380.4 519.449v-519.449h-169.839v796.555h174.805l369.474-500.578v500.578h169.839v-796.555h-163.88zM5633.49 34.328v796.555h313.855c249.296 0 423.108-158.914 423.108-398.277 0-241.35-172.819-399.271-422.114-399.271h-314.848zM6197.633 432.605c0 140.043-86.409 248.303-248.303 248.303h-146.002v-498.592h145.009c156.927 0.993 249.296 114.219 249.296 250.289zM6929.629 34.328l-50.654 135.077h-341.664l-50.654-135.077h-192.683l308.888 796.555h212.547l306.902-796.555h-192.683zM6709.137 661.044l-124.151-342.658h248.303l-124.151 342.658zM7182.898 34.328v325.773l-305.909 470.782h193.676l197.649-318.821 196.656 318.821h192.683l-304.916-470.782v-325.773h-169.839zM7557.339 146.561l93.362 133.090c56.613-58.599 143.022-109.253 253.269-109.253 94.355 0 139.049 41.715 139.049 88.396 0 139.049-458.863 41.715-458.863 341.664 0 133.090 114.219 242.343 301.936 242.343 127.131 0 231.418-37.742 310.875-111.24l-94.355-127.131c-64.559 59.593-150.968 87.403-231.418 87.403-71.511 0-112.233-30.79-112.233-78.464 0-125.145 457.87-40.722 457.87-337.692 0-146.002-105.28-255.255-318.821-255.255-155.934-0.993-265.187 50.654-340.671 126.138zM1651.709 36.314c-12.912 35.756-10.925 75.484 5.959 110.246l234.398 503.558c23.837 48.667 84.423 70.518 134.083 48.667 50.654-23.837 63.565-75.484 41.715-122.165l-127.131-265.187c-17.878-35.756-71.511-8.939-55.62 25.823l126.138 257.242c5.959 14.898-0.993 32.776-13.905 39.728-14.898 6.952-33.769 0-39.728-13.905l-235.391-503.558c-17.878-38.735-0.993-81.443 35.756-98.328 36.749-19.864 83.43 0.993 97.335 35.756l304.916 653.532c29.796 62.572 2.98 137.063-60.586 165.866-61.579 28.803-137.063 1.986-165.866-60.586l-236.384-500.578c-19.864-41.715-81.443-13.905-61.579 27.81l234.398 502.565c45.688 97.335 161.893 140.043 259.228 94.355 98.328-44.694 141.036-161.893 94.355-260.221l-303.922-651.546c-16.885-34.762-45.688-62.572-81.443-75.484-75.484-27.81-160.9 14.898-186.724 86.409zM1633.831-51.088c-35.756 12.912-64.559 40.722-81.443 75.484l-303.922 651.546c-45.688 99.321-3.973 215.527 94.355 260.221 97.335 45.688 213.54 2.98 259.228-94.355l235.391-501.571c19.864-41.715-41.715-69.525-61.579-27.81l-236.384 500.578c-28.803 61.579-104.287 89.389-165.866 60.586-63.565-28.803-90.382-103.294-60.586-165.866l304.916-653.532c13.905-34.762 60.586-55.62 97.335-35.756 36.749 16.885 53.633 59.593 35.756 98.328l-235.391 503.558c-5.959 14.898-23.837 20.857-39.728 13.905-13.905-5.959-19.864-24.83-13.905-39.728l126.138-257.242c16.885-34.762-37.742-61.579-55.62-25.823l-127.131 265.187c-21.851 46.681-8.939 99.321 41.715 122.165 49.661 21.851 110.246 0 134.083-48.667l234.398-503.558c16.885-34.762 18.871-74.491 5.959-110.246-27.81-71.511-112.233-114.219-187.717-87.403z" />
</font>
</defs>
</svg>
